<svg xmlns="http://www.w3.org/2000/svg" viewBox="0 0 1200 680"><defs><linearGradient id="sky" x2="0" y2="1"><stop stop-color="#16273d"/><stop offset="1" stop-color="#34415a"/></linearGradient><linearGradient id="wall" x2="0" y2="1"><stop stop-color="#4b4b5d"/><stop offset="1" stop-color="#232a3c"/></linearGradient></defs><rect width="1200" height="680" fill="url(#sky)"/><rect x="0" y="0" width="1200" height="490" fill="url(#wall)"/><path d="M0 490H1200V680H0Z" fill="#2b2830"/><path d="M0 490 600 400 1200 490" fill="none" stroke="#7e6958" stroke-width="12"/><rect x="430" y="80" width="340" height="330" fill="#13243b" stroke="#9d805c" stroke-width="22"/><path d="M600 85V400M445 230H750" stroke="#9d805c" stroke-width="13"/><path d="M455 120 570 250 520 340" fill="none" stroke="#7d8797" stroke-width="5" opacity=".5"/><circle cx="670" cy="185" r="38" fill="#d8d4b8" opacity=".55"/><rect x="90" y="130" width="230" height="345" fill="#252d3b" stroke="#8e6c4d" stroke-width="17"/><path d="M110 160V440" stroke="#695c58" stroke-width="25"/><path d="M155 160V440" stroke="#555d68" stroke-width="25"/><path d="M200 160V440" stroke="#80664d" stroke-width="25"/><path d="M245 160V440" stroke="#695c58" stroke-width="25"/><path d="M290 160V440" stroke="#555d68" stroke-width="25"/><path d="M230 530H920L980 630H160Z" fill="#694936" stroke="#30252a" stroke-width="15"/><ellipse cx="460" cy="525" rx="80" ry="18" fill="#d6c5a2"/><path d="M425 500h70v35h-70z" fill="#e0dbcd"/><path d="M490 505q55 -8 15 28" fill="none" stroke="#e0dbcd" stroke-width="12"/><circle cx="1010" cy="190" r="68" fill="#a18b66" stroke="#24232c" stroke-width="18"/><path d="M1010 190l30 -30m-30 30v38" stroke="#2a2631" stroke-width="9"/><rect width="1200" height="680" fill="#080e19" opacity=".13"/></svg>